<svg xmlns="http://www.w3.org/2000/svg" width="340" height="340" viewBox="0 0 340 340" role="img" aria-labelledby="t">
  <title id="t">TTM Tech logo (light)</title>
  <rect x="4" y="4" width="332" height="332" rx="72" fill="#FFFFFF" stroke="#1D4A9E" stroke-width="8"/>
  <svg x="54" y="66.5" width="232" height="131" viewBox="-14 0 266 150">
<rect x="-10" y="8" width="258" height="22" fill="#1D4A9E"/>
<rect x="35" y="8" width="24" height="132" fill="#1D4A9E"/>
<rect x="80" y="40" width="168" height="22" fill="#6B7380"/>
<rect x="108" y="40" width="24" height="100" fill="#6B7380"/>
<g aria-hidden="true" opacity="0.5">
<rect x="168" y="8" width="80" height="54" fill="#C9CED6"/>
<rect x="168" y="8.00" width="80" height="4.15" fill="#2B60BE"/>
<rect x="168" y="16.31" width="80" height="4.15" fill="#2B60BE"/>
<rect x="168" y="24.62" width="80" height="4.15" fill="#2B60BE"/>
<rect x="168" y="32.92" width="80" height="4.15" fill="#2B60BE"/>
<rect x="168" y="41.23" width="80" height="4.15" fill="#2B60BE"/>
<rect x="168" y="49.54" width="80" height="4.15" fill="#2B60BE"/>
<rect x="168" y="57.85" width="80" height="4.15" fill="#2B60BE"/>
<rect x="168" y="8" width="32.00" height="29.08" fill="#1D4A9E"/>
<circle cx="170.67" cy="10.91" r="0.75" fill="#FFFFFF"/>
<circle cx="176.00" cy="10.91" r="0.75" fill="#FFFFFF"/>
<circle cx="181.33" cy="10.91" r="0.75" fill="#FFFFFF"/>
<circle cx="186.67" cy="10.91" r="0.75" fill="#FFFFFF"/>
<circle cx="192.00" cy="10.91" r="0.75" fill="#FFFFFF"/>
<circle cx="197.33" cy="10.91" r="0.75" fill="#FFFFFF"/>
<circle cx="173.33" cy="13.82" r="0.75" fill="#FFFFFF"/>
<circle cx="178.67" cy="13.82" r="0.75" fill="#FFFFFF"/>
<circle cx="184.00" cy="13.82" r="0.75" fill="#FFFFFF"/>
<circle cx="189.33" cy="13.82" r="0.75" fill="#FFFFFF"/>
<circle cx="194.67" cy="13.82" r="0.75" fill="#FFFFFF"/>
<circle cx="170.67" cy="16.72" r="0.75" fill="#FFFFFF"/>
<circle cx="176.00" cy="16.72" r="0.75" fill="#FFFFFF"/>
<circle cx="181.33" cy="16.72" r="0.75" fill="#FFFFFF"/>
<circle cx="186.67" cy="16.72" r="0.75" fill="#FFFFFF"/>
<circle cx="192.00" cy="16.72" r="0.75" fill="#FFFFFF"/>
<circle cx="197.33" cy="16.72" r="0.75" fill="#FFFFFF"/>
<circle cx="173.33" cy="19.63" r="0.75" fill="#FFFFFF"/>
<circle cx="178.67" cy="19.63" r="0.75" fill="#FFFFFF"/>
<circle cx="184.00" cy="19.63" r="0.75" fill="#FFFFFF"/>
<circle cx="189.33" cy="19.63" r="0.75" fill="#FFFFFF"/>
<circle cx="194.67" cy="19.63" r="0.75" fill="#FFFFFF"/>
<circle cx="170.67" cy="22.54" r="0.75" fill="#FFFFFF"/>
<circle cx="176.00" cy="22.54" r="0.75" fill="#FFFFFF"/>
<circle cx="181.33" cy="22.54" r="0.75" fill="#FFFFFF"/>
<circle cx="186.67" cy="22.54" r="0.75" fill="#FFFFFF"/>
<circle cx="192.00" cy="22.54" r="0.75" fill="#FFFFFF"/>
<circle cx="197.33" cy="22.54" r="0.75" fill="#FFFFFF"/>
<circle cx="173.33" cy="25.45" r="0.75" fill="#FFFFFF"/>
<circle cx="178.67" cy="25.45" r="0.75" fill="#FFFFFF"/>
<circle cx="184.00" cy="25.45" r="0.75" fill="#FFFFFF"/>
<circle cx="189.33" cy="25.45" r="0.75" fill="#FFFFFF"/>
<circle cx="194.67" cy="25.45" r="0.75" fill="#FFFFFF"/>
<circle cx="170.67" cy="28.35" r="0.75" fill="#FFFFFF"/>
<circle cx="176.00" cy="28.35" r="0.75" fill="#FFFFFF"/>
<circle cx="181.33" cy="28.35" r="0.75" fill="#FFFFFF"/>
<circle cx="186.67" cy="28.35" r="0.75" fill="#FFFFFF"/>
<circle cx="192.00" cy="28.35" r="0.75" fill="#FFFFFF"/>
<circle cx="197.33" cy="28.35" r="0.75" fill="#FFFFFF"/>
<circle cx="173.33" cy="31.26" r="0.75" fill="#FFFFFF"/>
<circle cx="178.67" cy="31.26" r="0.75" fill="#FFFFFF"/>
<circle cx="184.00" cy="31.26" r="0.75" fill="#FFFFFF"/>
<circle cx="189.33" cy="31.26" r="0.75" fill="#FFFFFF"/>
<circle cx="194.67" cy="31.26" r="0.75" fill="#FFFFFF"/>
<circle cx="170.67" cy="34.17" r="0.75" fill="#FFFFFF"/>
<circle cx="176.00" cy="34.17" r="0.75" fill="#FFFFFF"/>
<circle cx="181.33" cy="34.17" r="0.75" fill="#FFFFFF"/>
<circle cx="186.67" cy="34.17" r="0.75" fill="#FFFFFF"/>
<circle cx="192.00" cy="34.17" r="0.75" fill="#FFFFFF"/>
<circle cx="197.33" cy="34.17" r="0.75" fill="#FFFFFF"/>
</g>
<polygon opacity="0.7" points="168,140 168,72 188,72 208,104 228,72 248,72 248,140 228,140 228,106 213,130 203,130 188,106 188,140" fill="#2B60BE"/>
  </svg>
  <rect x="122" y="213.5" width="96" height="4" rx="2" fill="#2B60BE"/>
  <text x="179" y="266" text-anchor="middle" font-family="'JetBrains Mono', 'SFMono-Regular', Menlo, Consolas, monospace" font-size="40" font-weight="500" letter-spacing="18" fill="#18663F">TECH</text>
</svg>
